<svg id="Layer_1" data-name="Layer 1" xmlns="http://www.w3.org/2000/svg" viewBox="0 0 884.24 315.97"><defs><style>.cls-1{fill:#2a509b;}.cls-2{fill:#f4b432;}</style></defs><path class="cls-1" d="M478.66,89.07C496.14,72,513.47,65.64,533.08,65c44.65-1.53,78.33,26.37,80.73,70.91,2.36,43.89.87,88,1.27,132,.06,5.88-2,7.79-7.85,7.67-14.4-.32-28.84-.71-43.2.12-9.43.55-11.24-3.18-11.15-11.58.35-35.48.46-71,0-106.43-.31-24.49-16.19-38.17-40.28-35.86-16.38,1.58-27.43,10.89-31.13,27.09a86.52,86.52,0,0,0-1.93,18.67c-.19,31.88-.55,63.78.17,95.65.23,10.43-3.09,13.08-13,12.45a384.37,384.37,0,0,0-39.15-.07c-7.44.28-10.23-1.81-10.19-9.73q.44-93,0-185.92c0-8.13,3.14-9.84,10.36-9.56a331.4,331.4,0,0,0,35.1,0C474.13,69.55,482.86,70.25,478.66,89.07Z" transform="translate(-4 -6.56)"/><path class="cls-2" d="M681,21.85c35,1,67.25,31.26,73.6,69.26,1.25,7.5,1.41,15.16,2.29,22.73,2.39,20.53,16.08,34.39,36.57,37.22,15.33,2.11,23,9.07,23.2,21s-7.87,19.6-22.81,21.64c-22.54,3.08-36.17,18-37.27,42.09-.92,20.25-6,38.92-18.39,55.22-14.06,18.5-32.77,29-55.89,31.34-14.18,1.44-24.43-6-25.52-17.87-1.05-11.53,6.51-19.06,21.09-21,20.84-2.82,35.08-16,37-38.17,2.26-25.59,6.63-49.79,25.14-69.22,4.14-4.34.74-7.2-1.89-10.23-14.46-16.6-20.74-36.12-22.2-57.87-2-30-12.42-41.31-41.47-47-11.71-2.3-18.73-10.85-17.77-21.63C657.68,27.78,666.52,21.43,681,21.85Z" transform="translate(-4 -6.56)"/><path class="cls-2" d="M140.06,21.86c14.27-.36,23.15,6.26,23.95,17.82s-6.86,19.53-20.88,21.56c-21.4,3.1-35.24,15.58-37.34,37.73-2.42,25.56-6.79,49.76-25.31,69.16-3.44,3.61-1.26,6.34,1.29,9.23,15.24,17.21,21.5,37.5,22.9,60.3,1.79,29,13.47,41,41.2,46,12.1,2.17,19.16,10.51,18,21.22-1.28,11.45-11,18.45-24.51,17.63-35.45-2.16-66.6-31.17-73.15-68.4-1.16-6.6-1.53-13.34-2.06-20-1.76-22.58-15.41-37.25-37.68-40.37-14.7-2.06-22.83-10-22.43-22,.39-11.57,8.08-18.67,22.24-20.53,23.39-3.08,36.61-17.85,37.9-43,1.81-35.36,16.13-63,48.66-79.48A59.83,59.83,0,0,1,140.06,21.86Z" transform="translate(-4 -6.56)"/><path class="cls-1" d="M291.39,260.09c28.61-1,51.94-11.28,67.53-34.63,6-9,9.92-4.86,16.07-1.8,8.76,4.38,4.37,8.9,1.11,13.75-42.58,63.45-147.8,54.73-182.56-15.12-20.28-40.75-12.8-92.06,18.08-124.06s82-41.53,123.56-22.93a90.49,90.49,0,0,1,40.35,34.58c3.2,5,5.45,9.17-2.07,12.79-5.73,2.76-9.3,6.51-15-1.74C336.33,88.69,295.27,77.4,257.84,92c-37.07,14.45-59.19,52.92-53.55,93.13,5.56,39.7,35.86,69.92,74.44,74.17C283.2,259.8,287.71,259.87,291.39,260.09Z" transform="translate(-4 -6.56)"/><path class="cls-1" d="M888.24,41.63c-.35,19-15.49,33.61-34.76,33.62-19.73,0-35.07-15.46-34.72-35a34.75,34.75,0,0,1,69.48,1.37ZM868,60c.38.23,1,.76,1.12.65,11.36-7.24,13.75-23.88,5.21-36a25.33,25.33,0,0,0-35.63-6.12c-12.27,8.82-14.84,27.37-5.45,39.42C842,69.16,858.38,71.07,868.84,62c.26-.22-.38-1.48-.6-2.26Z" transform="translate(-4 -6.56)"/><path class="cls-1" d="M868.24,59.72c-4.67-.82-8.38-2.48-9.25-8-.49-3.17-2.34-5.89-6.15-6.06-4.83-.21-4.29,3.45-4.53,6.48-.25,3.19-.38,6.83-5,6.07-3.58-.6-2.8-4-2.91-6.55-.17-4-.06-8-.05-12.07,0-15.39,5.48-19.43,20.16-15.15,4.32,1.25,9.16,4.82,7.19,8-6.12,9.72,2.41,18.46.22,27.56Z" transform="translate(-4 -6.56)"/></svg>